<?xml version="1.0" encoding="utf-8"?>
<svg width="257px" height="40px" viewbox="0 0 257 40" version="1.1" xmlns:xlink="http://www.w3.org/1999/xlink" xmlns="http://www.w3.org/2000/svg">
  <g id="Logo" transform="translate(0.25424194 0.2541504)">
    <g id="webovio." transform="translate(66.2034 0)">
      <path d="M0 9.83301L8.55369 32.2773L14.4389 32.2773L18.4599 20.2144L22.6271 32.2773L28.5123 32.2773L36.9563 9.83301L29.9014 9.83301L25.4783 22.3346L21.1649 9.83301L15.7183 9.83301L11.6242 22.2614L7.16463 9.83301L0 9.83301ZM38.4916 21.0919C38.4916 28.6221 43.2437 32.8258 50.1524 32.8258C54.8679 32.8258 58.6695 30.4863 60.6435 26.9771L60.213 26.7156C58.6579 25.7812 55.3431 23.87 55.3431 23.87L55.1396 24.1333C54.0038 25.5798 52.5838 26.9771 50.4814 26.9771C47.9226 26.9771 45.8025 25.6977 45.2176 23.0293L61.009 23.0293C61.041 22.5815 61.017 22.3016 61.0105 21.8713L61.009 21.6768C61.009 13.6714 56.4397 9.39453 49.9696 9.39453C43.3533 9.39453 38.4916 14.2928 38.4916 21.0919ZM49.8965 15.0969C52.0167 15.0969 53.1864 16.1204 53.9906 18.2771L45.4735 18.2771C46.3142 16.1936 47.5936 15.0969 49.8965 15.0969ZM64.6645 4.27686L64.6645 32.2774L71.3173 32.2774L71.3173 29.9379C73.4009 31.985 75.5942 32.8257 78.5551 32.8257C84.879 32.8257 88.8634 27.3426 88.8634 21.0918C88.8634 14.9872 84.9521 9.39445 78.3357 9.39445C74.4244 9.39445 71.427 11.9532 71.427 11.9532L71.427 4.27686L64.6645 4.27686ZM76.8005 15.6819C79.871 15.6819 82.1008 18.0945 82.1008 20.9457C82.1008 24.1259 80.4193 26.7944 77.0929 26.7944C73.5471 26.7944 71.2442 24.5646 71.2442 21.0919C71.2442 17.8386 73.6203 15.6819 76.8005 15.6819ZM91.4221 21.165C91.4221 27.4158 96.686 33.0451 103.558 33.0451C110.869 33.0451 115.804 27.891 115.804 21.0553C115.804 14.2928 110.503 9.39453 103.704 9.39453C96.7956 9.39453 91.4221 14.439 91.4221 21.165ZM103.668 15.7915C106.848 15.7915 109.041 18.0579 109.041 20.9457C109.041 24.4549 106.994 26.6116 103.631 26.6116C100.524 26.6116 98.2212 24.2721 98.2212 21.2746C98.2212 18.2041 100.378 15.7915 103.668 15.7915ZM117.412 9.83301L126.807 32.2773L132.875 32.2773L141.684 9.83301L134.52 9.83301L129.914 22.956L125.015 9.83301L117.412 9.83301ZM151.188 32.2773L151.188 9.83301L144.389 9.83301L144.389 32.2773L151.188 32.2773ZM143.731 4.13063C143.731 6.43355 145.522 8.2247 147.752 8.2247C150.092 8.2247 151.956 6.36044 151.956 4.05752C151.956 1.79116 150.092 0 147.825 0C145.559 0 143.731 1.86427 143.731 4.13063ZM154.844 21.165C154.844 27.4158 160.108 33.0451 166.98 33.0451C174.291 33.0451 179.225 27.891 179.225 21.0553C179.225 14.2928 173.925 9.39453 167.126 9.39453C160.217 9.39453 154.844 14.439 154.844 21.165ZM167.089 15.7915C170.27 15.7915 172.463 18.0579 172.463 20.9457C172.463 24.4549 170.416 26.6116 167.053 26.6116C163.946 26.6116 161.643 24.2721 161.643 21.2746C161.643 18.2041 163.799 15.7915 167.089 15.7915Z" id="webovio" fill="#FFFFFF" stroke="none" />
      <path d="M4.20374 0C6.50665 0 8.40747 1.90082 8.40747 4.20374C8.40747 6.50665 6.50665 8.40747 4.20374 8.40747C1.90082 8.40747 0 6.50665 0 4.20374C0 1.90082 1.90082 0 4.20374 0Z" transform="translate(181.67453 24.18164)" id="." fill="#FFFFFF" fill-rule="evenodd" stroke="none" />
    </g>
    <g id="Group-3" transform="translate(0 4.27124)">
      <path d="M23.8679 4.78273L41.9964 34.997L5.91063 34.997Q5.8002 34.997 5.69 34.9898Q5.57981 34.9825 5.47033 34.9679Q5.36086 34.9534 5.25258 34.9317Q5.1443 34.91 5.03769 34.8812Q4.93108 34.8524 4.8266 34.8166Q4.72212 34.7808 4.62022 34.7382Q4.51833 34.6957 4.41946 34.6465Q4.32059 34.5972 4.22519 34.5416Q4.12978 34.486 4.03825 34.4242Q3.94672 34.3624 3.85946 34.2947Q3.7722 34.227 3.68959 34.1538Q3.60698 34.0805 3.52939 34.0019Q3.45179 33.9233 3.37955 33.8398Q3.3073 33.7563 3.24072 33.6682Q3.17414 33.58 3.11351 33.4877Q3.05288 33.3954 2.99847 33.2993Q2.94406 33.2032 2.8961 33.1038Q2.84814 33.0043 2.80685 32.9018Q2.76556 32.7994 2.7311 32.6945Q2.69665 32.5896 2.66919 32.4826Q2.64173 32.3756 2.62139 32.2671Q2.60104 32.1586 2.58789 32.0489Q2.57474 31.9393 2.56885 31.829Q2.56296 31.7187 2.56436 31.6083Q2.56575 31.4978 2.57442 31.3878Q2.58309 31.2777 2.599 31.1684Q2.61491 31.0591 2.63799 30.9511Q2.66107 30.8431 2.69122 30.7369Q2.72137 30.6306 2.75846 30.5266Q2.79554 30.4226 2.83941 30.3212Q2.88327 30.2199 2.93372 30.1216Q2.98418 30.0234 3.04099 29.9287L18.1286 4.78273Q18.184 4.6903 18.2453 4.60162Q18.3066 4.51295 18.3735 4.42841Q18.4404 4.34387 18.5125 4.2638Q18.5847 4.18374 18.6619 4.10848Q18.7391 4.03323 18.8209 3.9631Q18.9028 3.89297 18.989 3.82825Q19.0752 3.76353 19.1654 3.70449Q19.2556 3.64546 19.3494 3.59235Q19.4432 3.53924 19.5402 3.49228Q19.6372 3.44531 19.7371 3.40469Q19.8369 3.36407 19.9392 3.32996Q20.0414 3.29584 20.1457 3.26838Q20.2499 3.24092 20.3557 3.22023Q20.4615 3.19953 20.5684 3.18569Q20.6753 3.17184 20.7829 3.1649Q20.8904 3.15797 20.9982 3.15797Q21.106 3.15797 21.2136 3.1649Q21.3211 3.17184 21.4281 3.18569Q21.535 3.19953 21.6407 3.22023Q21.7465 3.24092 21.8508 3.26838Q21.955 3.29584 22.0573 3.32996Q22.1595 3.36407 22.2594 3.40469Q22.3592 3.44531 22.4562 3.49228Q22.5533 3.53924 22.6471 3.59235Q22.7409 3.64546 22.831 3.70449Q22.9212 3.76353 23.0074 3.82825Q23.0936 3.89297 23.1755 3.9631Q23.2574 4.03323 23.3345 4.10848Q23.4117 4.18374 23.4839 4.2638Q23.5561 4.34387 23.6229 4.42841Q23.6898 4.51295 23.7511 4.60162Q23.8124 4.6903 23.8679 4.78273L23.8679 4.78273Z" transform="matrix(-1 -8.742278E-08 8.742278E-08 -1 54.777966 34.997036)" id="Triangle" fill="#FFD723" fill-rule="evenodd" stroke="none" />
      <path d="M23.8679 4.78273L41.9964 34.997L5.91063 34.997Q5.8002 34.997 5.69 34.9898Q5.57981 34.9825 5.47033 34.9679Q5.36086 34.9534 5.25258 34.9317Q5.1443 34.91 5.03769 34.8812Q4.93108 34.8524 4.8266 34.8166Q4.72212 34.7808 4.62022 34.7382Q4.51833 34.6957 4.41946 34.6465Q4.32059 34.5972 4.22519 34.5416Q4.12978 34.486 4.03825 34.4242Q3.94672 34.3624 3.85946 34.2947Q3.7722 34.227 3.68959 34.1538Q3.60698 34.0805 3.52939 34.0019Q3.45179 33.9233 3.37955 33.8398Q3.3073 33.7563 3.24072 33.6682Q3.17414 33.58 3.11351 33.4877Q3.05288 33.3954 2.99847 33.2993Q2.94406 33.2032 2.8961 33.1038Q2.84814 33.0043 2.80685 32.9018Q2.76556 32.7994 2.7311 32.6945Q2.69665 32.5896 2.66919 32.4826Q2.64173 32.3756 2.62139 32.2671Q2.60104 32.1586 2.58789 32.0489Q2.57474 31.9393 2.56885 31.829Q2.56296 31.7187 2.56436 31.6083Q2.56575 31.4978 2.57442 31.3878Q2.58309 31.2777 2.599 31.1684Q2.61491 31.0591 2.63799 30.9511Q2.66107 30.8431 2.69122 30.7369Q2.72137 30.6306 2.75846 30.5266Q2.79554 30.4226 2.83941 30.3212Q2.88327 30.2199 2.93372 30.1216Q2.98418 30.0234 3.04099 29.9287L18.1286 4.78273Q18.184 4.6903 18.2453 4.60162Q18.3066 4.51295 18.3735 4.42841Q18.4404 4.34387 18.5125 4.2638Q18.5847 4.18374 18.6619 4.10848Q18.7391 4.03323 18.8209 3.9631Q18.9028 3.89297 18.989 3.82825Q19.0752 3.76353 19.1654 3.70449Q19.2556 3.64546 19.3494 3.59235Q19.4432 3.53924 19.5402 3.49228Q19.6372 3.44531 19.7371 3.40469Q19.8369 3.36407 19.9392 3.32996Q20.0414 3.29584 20.1457 3.26838Q20.2499 3.24092 20.3557 3.22023Q20.4615 3.19953 20.5684 3.18569Q20.6753 3.17184 20.7829 3.1649Q20.8904 3.15797 20.9982 3.15797Q21.106 3.15797 21.2136 3.1649Q21.3211 3.17184 21.4281 3.18569Q21.535 3.19953 21.6407 3.22023Q21.7465 3.24092 21.8508 3.26838Q21.955 3.29584 22.0573 3.32996Q22.1595 3.36407 22.2594 3.40469Q22.3592 3.44531 22.4562 3.49228Q22.5533 3.53924 22.6471 3.59235Q22.7409 3.64546 22.831 3.70449Q22.9212 3.76353 23.0074 3.82825Q23.0936 3.89297 23.1755 3.9631Q23.2574 4.03323 23.3345 4.10848Q23.4117 4.18374 23.4839 4.2638Q23.5561 4.34387 23.6229 4.42841Q23.6898 4.51295 23.7511 4.60162Q23.8124 4.6903 23.8679 4.78273L23.8679 4.78273Z" transform="matrix(1 2.1456883E-07 2.1456883E-07 -1 -5.284406E-06 34.997032)" id="Triangle-Copy" fill="#FFFFFF" fill-rule="evenodd" stroke="none" />
      <path d="M0 0L29.2149 0L14.6085 24.3458L0 0Z" transform="translate(12.781526 0)" id="Rectangle" fill="#F6F6F6" fill-rule="evenodd" stroke="none" />
    </g>
  </g>
</svg>